<svg width="60" height="60" viewBox="0 0 60 60" fill="none" xmlns="http://www.w3.org/2000/svg">
<path d="M27.1219 49.8C27.1219 49.8 26.8922 51.6703 26.4656 53.0812C26.1047 54.2766 25.5328 55.2 25.4812 56.4281C25.4391 57.4406 26.2359 58.2281 29.9766 58.2984C33.1547 58.3547 34.2563 57.3562 34.1578 55.9781C34.0641 54.6984 33.5203 53.7375 33.225 52.2609C33.0141 51.1969 32.8641 49.9312 32.8641 49.9312L27.1219 49.8V49.8Z" fill="#835D4E"/>
<path d="M31.4109 13.0922L23.2219 16.1297L17.775 17.0672C17.775 17.0672 17.1234 17.8922 17.9719 18.8625C18.5859 19.5609 19.6172 20.0625 21.0281 20.0766C22.6172 20.0906 23.2594 19.4672 23.4375 19.9969C23.6156 20.5266 21.4219 21.8344 20.2172 22.5422C19.0125 23.25 15.075 24.4688 14.9016 26.2313C14.7703 27.5859 16.1203 28.4859 16.7859 28.6969C17.6344 28.9641 18.8391 28.9078 19.1906 28.9453C19.5422 28.9828 19.65 29.6531 19.1531 30.075C18.6563 30.5016 17.3156 30.9609 16.3969 31.3125C15.4781 31.6641 11.7281 32.9063 11.2313 33.1172C10.7344 33.3281 10.1719 34.2141 10.5938 35.5219C11.0203 36.8297 12.5391 37.8188 13.9172 38.3156C15.2953 38.8125 15.6844 38.5969 15.6844 38.5969C15.6844 38.5969 15.4922 39.3469 14.8031 39.9703C14.1141 40.5938 11.9344 42.9141 11.9344 42.9141C11.9344 42.9141 7.81406 43.0219 7.45313 43.3172C7.09219 43.6125 6.8625 44.3344 7.02656 45.0234C7.19063 45.7125 7.71563 47.4516 10.9969 48.4031C14.2781 49.3547 16.4766 48.4031 16.4766 48.4031C16.4766 48.4031 15.3891 50.4938 17.8875 51.4875C19.7719 52.2375 22.6453 51.3563 23.3672 51.1594C24.0891 50.9625 26.6156 49.9125 26.6156 49.9125C26.6156 49.9125 27.3047 51.5625 30.0937 51.6844C33.0469 51.8156 35.1141 50.3719 35.1141 50.3719C35.1141 50.3719 39.2016 52.8703 42.3328 51.5531C44.5969 50.6016 43.875 48.3375 43.875 48.3375C43.875 48.3375 47.8453 49.0266 50.7328 47.8781C53.6203 46.7297 54.0797 45.1547 54.0797 44.3672C54.0797 43.5797 52.9313 42.9141 52.4063 42.9469C51.8813 42.9797 50.3391 42.7922 49.4203 42.3984C48.5016 42.0047 47.2641 41.3625 47.2641 41.3625C47.2641 41.3625 45.1172 40.6594 43.7109 39.4453C43.125 38.9438 43.1859 38.4281 44.0391 38.3953C44.8922 38.3625 47.4797 38.3859 48.9609 37.3125C50.5172 36.1828 50.5172 35.175 50.4375 34.7203C50.3203 34.0688 49.6266 33.8063 49.6266 33.8063C49.6266 33.8063 43.6828 31.9313 43.5516 31.7672C43.4203 31.6031 42.4687 30.5203 42.3703 30.4219C42.2719 30.3234 40.5984 29.7 40.9594 29.2078C41.3203 28.7156 43.2187 28.7016 44.3062 27.5672C45.5766 26.2406 45.225 25.0406 44.7984 24.5813C44.3719 24.1219 43.6031 23.8828 43.6031 23.8828C43.6031 23.8828 42.1594 24.3094 41.6672 24.0797C41.175 23.85 38.8312 21.6 38.8312 21.6C38.8312 21.6 36.8391 20.4891 36.8625 20.1516C36.8953 19.6922 38.9063 20.1656 40.5703 19.6266C42.0656 19.1438 42.0094 18.1125 41.9156 17.7234C41.7703 17.1141 41.2313 16.8609 40.8703 16.5984C40.5047 16.3406 31.4109 13.0922 31.4109 13.0922V13.0922Z" fill="#0A7C1F"/>
<path d="M28.0734 7.1203C28.0734 7.1203 26.7844 9.80155 24.5953 12.2391C21.1172 16.1109 17.7375 17.0953 17.7375 17.0953C17.7375 17.0953 18.1641 18.3422 20.4281 18.2766C22.9875 18.2016 26.3344 16.3734 26.3344 16.3734C26.3344 16.3734 27.3188 18.7359 28.5328 20.1141C29.9906 21.7687 31.7063 22.9734 33.4219 22.0828C34.0688 21.7453 34.2 20.3391 33.4219 19.3594C31.5094 16.95 32.7422 17.1281 32.8781 17.25C32.8781 17.25 34.3734 18.4078 37.125 18.375C39.8766 18.3422 40.8656 16.6031 40.8656 16.6031C40.8656 16.6031 37.4531 14.7 35.2219 12.1078C32.9906 9.51561 31.1531 7.28436 31.1531 7.28436L28.0734 7.1203V7.1203Z" fill="#02AB48"/>
<path d="M26.6625 21.225C26.6578 21.2297 25.0687 22.2516 23.2828 22.1109C22.5094 22.05 21.9609 21.4734 21.9609 21.4734C21.9609 21.4734 20.1891 22.5141 19.3125 22.9641C18.2297 23.5219 16.8422 24.075 16.1109 24.6047C15.75 24.8672 15.2438 25.425 15.2438 25.425C15.2438 25.425 15.5063 26.6391 17.8031 26.6391C20.1 26.6391 21.6422 26.3438 23.0531 26.7375C24.4641 27.1313 26.6625 29.3297 28.2047 29.3297C29.7469 29.3297 30.8297 27.2625 32.3062 27.2625C33.7828 27.2625 34.1766 28.0172 36.4406 28.2469C38.7047 28.4766 42.2812 27.1641 43.1016 26.3766C44.2125 25.3078 43.6078 23.8828 43.6078 23.8828C43.6078 23.8828 42.1687 23.3063 40.875 22.6781C39.7547 22.1344 38.8406 21.6188 38.8406 21.6188C38.8406 21.6188 38.3156 22.2094 37.725 22.1766C37.1344 22.1438 36.2859 21.8063 35.5969 22.3313C34.9078 22.8563 34.4953 23.6813 33.1313 23.8828C29.7797 24.375 26.6625 21.225 26.6625 21.225V21.225Z" fill="#02AB48"/>
<path d="M11.2125 33.1359C11.2125 33.1359 10.7344 34.7297 12.9375 35.7188C15.1406 36.7078 19.2797 35.8313 19.4719 36.0234C19.6641 36.2156 16.0781 38.1563 17.9531 39.7453C20.1938 41.6438 25.9688 35.9859 26.3484 35.9859C26.7281 35.9859 26.9203 40.6594 29.2359 41.4938C31.5516 42.3281 33.8297 38.9109 35.2359 38.4938C36.6422 38.0766 37.6687 39.3281 39.4875 39.4031C41.8875 39.5016 43.0594 38.8734 43.2094 37.8844C43.3594 36.8953 41.2359 35.1141 41.6906 34.7344C42.1453 34.3547 42.9422 35.7609 46.1344 35.5313C49.3266 35.3016 49.6453 33.8063 49.6453 33.8063L42.3516 30.4266C42.3516 30.4266 41.3484 31.6219 39.7547 31.6594C38.1609 31.6969 34.1344 31.0125 32.5406 31.4672C30.9469 31.9219 30.45 33.7453 27.7922 33.6328C25.1344 33.5203 23.3484 31.7344 21.525 32.6063C19.7016 33.4781 18.3656 34.5938 17.3531 33.9703C16.7719 33.6094 16.8328 33.0938 16.8844 32.2922C16.9219 31.6828 17.1563 31.0406 17.1563 31.0406L11.2125 33.1359V33.1359Z" fill="#02AB48"/>
<path d="M7.43437 43.3359C7.43437 43.3359 8.45625 46.1297 13.4391 46.1297C17.6953 46.1297 19.1906 43.7672 19.9969 43.0922C20.7984 42.4172 21.3797 41.4703 21.6375 41.8875C21.8953 42.3047 19.0641 45.3609 17.9062 46.4859C17.2594 47.1141 16.4578 48.3188 17.6812 49.0922C18.9047 49.8656 21.7641 49.5094 24.0797 48.5156C26.3953 47.5219 27.0703 45.4594 27.0703 45.4594C27.0703 45.4594 25.3359 44.7844 25.0125 42.6938C24.6891 40.6031 24.5953 39.7172 23.9203 39.6234C23.2453 39.525 18.4359 43.4484 15.4594 42.1781C14.0437 41.5734 14.7797 39.9937 14.7797 39.9937C14.7797 39.9937 13.4156 41.0719 11.5828 41.7703C10.1812 42.3 7.43437 43.3359 7.43437 43.3359V43.3359Z" fill="#02AB48"/>
<path d="M28.0078 45.6188C28.0078 45.6188 27.4078 47.4938 27.5297 47.9531C27.7594 48.8297 28.6172 49.7344 30.7734 49.5703C32.9297 49.4109 34.1156 48.6047 34.0875 47.8969C34.0594 47.1891 32.6719 45.4219 33.3469 44.9719C34.0219 44.5219 34.5047 45.5484 35.1797 46.6453C35.8547 47.7422 38.7797 51.2766 41.8688 49.6031C44.6953 48.0703 40.9031 45.0375 41.6766 44.5547C42.45 44.0719 44.2828 45.7734 47.0766 45.6469C52.0266 45.4219 52.7016 42.9797 52.7016 42.9797C52.7016 42.9797 50.8031 42.4969 49.7109 42.2063C48.6188 41.9156 47.2641 41.3672 47.2641 41.3672C47.2641 41.3672 45.0469 42.4969 41.9625 42.3984C38.8781 42.3 37.0406 41.0813 35.7234 41.3063C34.4063 41.5313 33.4078 43.3922 31.7672 44.4563C29.4844 45.9375 28.0078 45.6188 28.0078 45.6188V45.6188Z" fill="#02AB48"/>
<path d="M31.5938 8.21718C31.5656 8.30155 30.8063 11.025 29.9953 11.025C29.1797 11.025 27.8344 8.10468 27.8344 8.10468C27.8344 8.10468 24.9891 8.01561 24.8578 7.62655C24.6891 7.1203 26.7375 4.95936 26.7375 4.95936C26.7375 4.95936 26.3719 1.9828 26.7094 1.70155C27.0891 1.3828 29.7422 3.15936 29.7422 3.15936C29.7422 3.15936 32.4422 1.61718 32.8875 1.94999C33.3375 2.28749 32.5219 4.84217 32.5219 4.84217C32.5219 4.84217 34.6828 6.60936 34.5141 7.08749C34.3453 7.5703 31.5938 8.21718 31.5938 8.21718V8.21718Z" fill="#FCC11A"/>
<path d="M27.9984 2.59686C27.8812 2.69061 28.1062 3.28124 28.6875 3.9703C29.2687 4.65936 29.6766 5.23124 29.8031 5.24999C29.9297 5.26405 30.7781 4.18124 31.0734 3.85311C31.3734 3.52499 31.725 2.87343 31.6219 2.7703C31.4344 2.5828 29.7703 3.7453 29.7703 3.7453C29.7703 3.7453 28.1953 2.44218 27.9984 2.59686V2.59686Z" fill="#FEE56B"/>
<path d="M25.2 7.29844C25.3359 7.39688 28.6547 6.15 28.7016 5.98125C28.7531 5.78438 27.7125 5.33906 27.3984 5.24531C27.0844 5.15156 26.5172 5.63906 25.9875 6.22031C25.5328 6.70781 25.0875 7.21875 25.2 7.29844Z" fill="#FEE56B"/>
<path d="M30.6797 12.1734C29.0109 12.1969 28.2703 13.3406 28.2891 14.7187C28.3078 16.0969 29.2969 17.0297 30.8531 17.0109C32.4094 16.9922 33.2203 15.9234 33.1641 14.4281C33.1172 13.125 32.1937 12.1547 30.6797 12.1734V12.1734Z" fill="#FF5F5E"/>
<path d="M37.1109 21.4688C35.4422 21.4922 34.4719 22.7297 34.4906 24.1078C34.5094 25.4859 35.5594 26.5547 37.2281 26.5359C38.9391 26.5172 39.7922 25.2938 39.7312 23.7984C39.6844 22.5 38.625 21.45 37.1109 21.4688Z" fill="#FCD81E"/>
<path d="M25.9031 21.9516C24.1547 21.975 23.2219 23.1844 23.2406 24.6516C23.2594 26.1188 24.4313 27.1594 26.0578 27.1359C27.6844 27.1172 28.5844 25.95 28.5234 24.3609C28.4719 22.9734 27.4875 21.9328 25.9031 21.9516V21.9516Z" fill="#DF0E2B"/>
<path d="M21.2859 30.8297C19.5187 30.8484 18.6469 32.1516 18.6656 33.6844C18.6891 35.2172 19.7578 36.2297 21.4781 36.2062C23.1984 36.1828 24.1031 34.9969 24.0422 33.3328C23.9859 31.8891 22.9641 30.8109 21.2859 30.8297V30.8297Z" fill="#FFD2B1"/>
<path d="M31.1437 33.4969C29.2875 33.5203 28.4672 34.7906 28.4906 36.3234C28.5141 37.8563 29.6109 38.8922 31.3359 38.8688C33.0609 38.8453 33.9656 37.6594 33.9047 36C33.8484 34.5563 32.8266 33.4781 31.1437 33.4969V33.4969Z" fill="#FCD81E"/>
<path d="M40.05 30.8484C38.1797 30.8719 37.2656 32.1703 37.2844 33.7219C37.3078 35.2734 38.3953 36.4219 40.1391 36.4031C41.8781 36.3797 42.9 35.0719 42.8344 33.3891C42.7828 31.9219 41.7516 30.8297 40.05 30.8484V30.8484Z" fill="#FF5F5D"/>
<path d="M41.0109 44.0672C41.0953 42.3562 40.0828 41.4562 38.6766 41.3719C37.2703 41.2875 36.2063 42.1453 36.1078 43.7344C36.0094 45.3234 36.9703 46.3875 38.4984 46.4391C39.8297 46.4859 40.9312 45.7031 41.0109 44.0672V44.0672Z" fill="#C9C9C9"/>
<path d="M22.0547 41.5313C20.3156 41.5547 19.5469 42.7266 19.5656 44.1375C19.5844 45.5484 20.6156 46.5047 22.2328 46.4859C23.85 46.4672 24.6984 45.3703 24.6375 43.8422C24.5906 42.5016 23.6344 41.5078 22.0547 41.5313Z" fill="#FF5F5E"/>
<path d="M20.4141 44.0906C20.9203 44.3625 21.1125 43.6266 21.3656 43.3734C21.6187 43.1203 22.2187 42.6938 21.9281 42.3234C21.6375 41.9531 20.8969 42.1641 20.55 42.5578C20.0812 43.0828 20.0016 43.8703 20.4141 44.0906V44.0906Z" fill="#F9FFFF"/>
<path d="M37.0359 44.0156C37.5422 44.2875 37.7578 43.5469 37.9688 43.2562C38.2406 42.8859 38.9016 42.6328 38.6109 42.2672C38.3203 41.8969 37.6172 42.1312 37.2703 42.5203C36.8016 43.0453 36.6234 43.7906 37.0359 44.0156Z" fill="#F9FFFF"/>
<path d="M38.325 33.5859C38.8828 33.8719 39.0938 33.0656 39.3656 32.7328C39.6094 32.4375 40.3219 32.1188 39.9984 31.7297C39.675 31.3406 38.9156 31.5469 38.5312 31.9547C38.0156 32.5078 37.8703 33.3516 38.325 33.5859V33.5859Z" fill="#F9FFFF"/>
<path d="M29.5031 36.2672C30.0094 36.5391 30.2016 35.8031 30.4547 35.55C30.7078 35.2969 31.3078 34.7344 31.0172 34.3641C30.7266 33.9937 30.0094 34.2281 29.6391 34.7344C29.2266 35.3016 29.0906 36.0469 29.5031 36.2672V36.2672Z" fill="#F9FFFF"/>
<path d="M19.6172 33.6047C20.1234 33.8766 20.4422 33.1078 20.6625 32.8266C21.0891 32.2828 21.4969 31.9922 21.2062 31.6219C20.9156 31.2516 20.1375 31.5656 19.7531 32.0672C19.3312 32.6297 19.2094 33.3844 19.6172 33.6047V33.6047Z" fill="#F9FFFF"/>
<path d="M24.2531 24.6328C24.7594 24.9047 25.0031 24.2063 25.2047 23.9156C25.5141 23.4703 26.0953 23.1 25.8047 22.7297C25.5141 22.3594 24.8156 22.5563 24.3891 23.1C23.9578 23.6484 23.8406 24.4078 24.2531 24.6328Z" fill="#F9FFFF"/>
<path d="M35.55 24.3937C36.1031 24.6937 36.3141 23.8828 36.5906 23.6062C36.8672 23.3297 37.5281 22.8609 37.2094 22.4578C36.8906 22.0547 36.0797 22.2844 35.7 22.7109C35.1844 23.2875 35.0953 24.1547 35.55 24.3937V24.3937Z" fill="#F9FFFF"/>
<path d="M29.0109 14.6766C29.5172 14.9484 29.7094 14.2125 29.9625 13.9594C30.2156 13.7062 30.8156 13.2797 30.525 12.9094C30.2344 12.5391 29.6484 12.7359 29.2219 13.2375C28.7719 13.7766 28.5984 14.4562 29.0109 14.6766Z" fill="#F9FFFF"/>
<path d="M23.6766 15.1219C22.9547 15.1219 22.6266 15.4313 22.5703 16.0735C22.5141 16.6969 22.9031 17.0813 23.4844 17.1234C24.3 17.1797 24.5531 16.5047 24.5531 16.0735C24.5484 15.586 24.1594 15.1219 23.6766 15.1219V15.1219Z" fill="#F9C319"/>
<path d="M26.775 17.8735C26.1656 17.4891 25.6406 17.7469 25.3875 18.061C25.0266 18.5063 25.0828 19.186 25.5891 19.4625C26.25 19.8235 26.7797 19.5469 26.9953 19.2235C27.3234 18.736 27.225 18.1594 26.775 17.8735Z" fill="#F9C319"/>
<path d="M29.5406 19.1719C28.9172 19.2891 28.6266 19.7906 28.7484 20.4234C28.8422 20.9203 29.3906 21.2719 29.9531 21.1359C30.75 20.9484 30.7875 20.2219 30.6562 19.8141C30.5156 19.3547 30.0187 19.0875 29.5406 19.1719V19.1719Z" fill="#F9C319"/>
<path d="M37.4063 16.2656C36.8391 15.8203 36.2578 15.9891 35.9625 16.3594C35.625 16.7813 35.5969 17.3297 36.0234 17.7234C36.5297 18.1875 37.2375 17.9438 37.4859 17.625C37.7719 17.2641 37.7859 16.5656 37.4063 16.2656Z" fill="#F9C319"/>
<path d="M34.1812 18.8484C33.4547 18.8484 33.1219 19.1578 33.0609 19.7953C33.0047 20.4141 33.4172 20.8172 34.0031 20.8594C34.8281 20.9156 35.0625 20.2219 35.0625 19.7953C35.0672 19.3125 34.6734 18.8484 34.1812 18.8484V18.8484Z" fill="#F9C319"/>
<path d="M21.0891 25.6453C20.3484 25.6453 20.0109 25.9594 19.95 26.6063C19.8937 27.2344 20.2922 27.6235 20.8875 27.6656C21.7266 27.7266 21.9844 27.0375 21.9844 26.6063C21.9844 26.1141 21.5859 25.6453 21.0891 25.6453V25.6453Z" fill="#F9C319"/>
<path d="M24.4266 28.2C23.7141 27.975 23.3297 28.1906 23.0391 28.7859C22.8047 29.2688 23.0391 29.9109 23.6109 30.1031C24.4359 30.375 24.8578 29.8313 24.9891 29.4094C25.1437 28.9313 24.9047 28.35 24.4266 28.2V28.2Z" fill="#F9C319"/>
<path d="M28.8516 31.2235C28.8328 30.4735 28.4859 30.1406 27.7969 30.0985C27.1219 30.0563 26.7234 30.4735 26.6953 31.0828C26.6578 31.936 27.3938 32.1797 27.8531 32.1656C28.3781 32.1469 28.8656 31.7297 28.8516 31.2235V31.2235Z" fill="#F9C319"/>
<path d="M32.3953 29.9156C31.6219 29.9156 31.2703 30.2437 31.2047 30.9234C31.1438 31.5844 31.5609 31.9875 32.1844 32.0344C33.0609 32.0953 33.3328 31.3781 33.3328 30.9234C33.3328 30.4078 32.9156 29.9156 32.3953 29.9156Z" fill="#F9C319"/>
<path d="M36.7547 28.575C36.0328 28.575 35.7047 28.8844 35.6484 29.5266C35.5922 30.15 35.9813 30.5344 36.5625 30.5766C37.3781 30.6328 37.6313 29.9578 37.6313 29.5266C37.6266 29.0438 37.2375 28.575 36.7547 28.575Z" fill="#F9C319"/>
<path d="M39.6422 27.6703C39.7875 28.3125 40.2844 28.5563 40.9078 28.3969C41.5125 28.2422 41.7469 27.75 41.5922 27.1875C41.3766 26.4 40.65 26.3859 40.2469 26.5313C39.7922 26.6906 39.5391 27.1969 39.6422 27.6703V27.6703Z" fill="#F9C319"/>
<path d="M45.9188 34.275C45.2344 34.275 44.9203 34.575 44.8641 35.1891C44.8078 35.7891 45.1781 36.1594 45.7359 36.1969C46.5141 36.2531 46.7531 35.6016 46.7531 35.1891C46.7531 34.725 46.3828 34.275 45.9188 34.275Z" fill="#F9C319"/>
<path d="M43.7766 37.9031C43.8469 37.1109 43.5422 36.7219 42.8484 36.5953C42.1734 36.4734 41.7187 36.8625 41.6156 37.4953C41.4703 38.3859 42.1875 38.7281 42.6563 38.7703C43.1859 38.8172 43.7297 38.4375 43.7766 37.9031Z" fill="#F9C319"/>
<path d="M38.9438 38.3906C38.1844 38.4234 37.7719 38.9438 37.8187 39.6938C37.8656 40.425 38.3953 40.7953 39.0844 40.7344C40.05 40.65 40.2234 39.8203 40.1437 39.3234C40.0547 38.7656 39.5203 38.3625 38.9438 38.3906Z" fill="#F9C319"/>
<path d="M34.5469 39.9563C33.7734 39.8578 33.3094 40.3125 33.2391 41.0531C33.1734 41.7703 33.6328 42.2016 34.3172 42.2625C35.4234 42.3656 35.5781 41.55 35.5781 41.0531C35.5781 40.4953 35.1141 40.0266 34.5469 39.9563V39.9563Z" fill="#F9C319"/>
<path d="M29.0484 40.5562C28.2891 40.5891 27.8766 41.1094 27.9234 41.8594C27.9703 42.5906 28.5 42.9609 29.1891 42.9C30.1547 42.8156 30.3281 41.9859 30.2484 41.4891C30.1641 40.9313 29.625 40.5328 29.0484 40.5562Z" fill="#F9C319"/>
<path d="M24.2578 39.0844C23.5125 39.1172 23.1234 39.7078 23.1562 40.3547C23.1891 41.0625 23.7187 41.4234 24.3937 41.3625C25.3406 41.2781 25.5094 40.4719 25.4344 39.9938C25.3453 39.4453 24.8203 39.0563 24.2578 39.0844Z" fill="#F9C319"/>
<path d="M19.7625 37.2703C19.0172 37.3031 18.6141 37.8094 18.6609 38.5359C18.7078 39.2437 19.2187 39.6 19.8937 39.5391C20.8406 39.4547 21.0094 38.6531 20.9344 38.1703C20.85 37.6312 20.325 37.2469 19.7625 37.2703Z" fill="#F9C319"/>
<path d="M16.95 33.7125C16.3078 33.7406 15.9609 34.1813 16.0031 34.8188C16.0453 35.4375 16.4859 35.7516 17.0672 35.7C17.8828 35.6297 18.0281 34.9266 17.9578 34.5047C17.8875 34.0313 17.4328 33.6938 16.95 33.7125Z" fill="#F9C319"/>
</svg>
