<svg width="60" height="60" viewBox="0 0 60 60" fill="none" xmlns="http://www.w3.org/2000/svg">
<path d="M20.1281 31.2281C18.6984 30.9797 17.2875 30.8672 15.9 30.8672C13.7812 30.8672 11.7234 31.1344 9.77813 31.5938C6.58594 32.3531 3.675 33.8578 1.875 36.1078V58.125H30V41.4375C30 35.6813 25.6969 32.1891 20.1281 31.2281Z" fill="url(#paint0_linear_2_356)"/>
<path d="M26.4188 25.1812C26.0344 24.4828 26.5266 23.7703 27.3609 22.8937C28.6875 21.4969 30.1266 18.2578 28.7906 14.9719C28.8 14.9531 28.5281 14.4 28.5328 14.3812L27.9797 14.3531C27.8016 14.3297 21.7453 14.3156 15.6844 14.3156C9.62344 14.3156 3.56719 14.3297 3.38907 14.3531C3.38907 14.3531 2.57344 14.9531 2.58282 14.9719C1.24219 18.2625 2.68594 21.4969 4.0125 22.8937C4.84688 23.775 5.33438 24.4828 4.95469 25.1812C4.58438 25.8609 3.47344 25.9594 3.47344 25.9594C3.47344 25.9594 3.73125 26.6531 4.34532 27.0281C4.91719 27.375 5.61563 27.4547 6.09844 27.4687C6.09844 27.4687 7.99219 30.0891 12.9375 30.0891H18.4406C23.3859 30.0891 25.2797 27.4687 25.2797 27.4687C25.7625 27.4594 26.4656 27.375 27.0328 27.0281C27.6469 26.6531 27.9047 25.9594 27.9047 25.9594C27.9047 25.9594 26.7938 25.8609 26.4188 25.1812V25.1812Z" fill="#543930"/>
<path d="M15.6797 30.0844V27.1781L24.4688 26.4844L25.2703 27.4687C25.2703 27.4687 23.3766 30.0891 18.4312 30.0891L15.6797 30.0844V30.0844Z" fill="url(#paint1_radial_2_356)"/>
<path d="M25.2516 26.1984C23.9344 24.1969 26.8547 23.4516 26.8547 23.4516H26.8594C26.3531 24.0844 26.1187 24.6328 26.4187 25.1766C26.7891 25.8563 27.9 25.9547 27.9 25.9547C27.9 25.9547 26.3859 27.3 25.2516 26.1984Z" fill="url(#paint2_radial_2_356)"/>
<path d="M28.7953 14.9672C30.1031 18.15 28.725 21.4313 27.4406 22.8141C27.2625 23.0063 26.5125 23.7422 26.3438 24.3281C26.3438 24.3281 23.4094 20.2359 22.5328 17.8266C22.3547 17.3391 22.1953 16.8422 22.1719 16.3266C22.1578 15.9375 22.2141 15.4781 22.4391 15.15C22.7109 14.7469 28.6406 14.6297 28.6406 14.6297C28.6359 14.6297 28.7953 14.9672 28.7953 14.9672V14.9672Z" fill="url(#paint3_radial_2_356)"/>
<path d="M2.57812 14.9672C1.275 18.15 2.64843 21.4313 3.9375 22.8141C4.11562 23.0063 4.86562 23.7422 5.03437 24.3281C5.03437 24.3281 7.96875 20.2359 8.84531 17.8266C9.02343 17.3391 9.18281 16.8422 9.20625 16.3266C9.22031 15.9375 9.16406 15.4781 8.93906 15.15C8.66718 14.7469 8.34375 14.8547 7.87968 14.8547C6.99375 14.8547 3.11718 14.6297 2.8125 14.6297C2.81718 14.6297 2.57812 14.9672 2.57812 14.9672V14.9672Z" fill="url(#paint4_radial_2_356)"/>
<path d="M15.6937 30.0844V27.1781L6.90468 26.4844L6.10312 27.4687C6.10312 27.4687 7.99687 30.0891 12.9422 30.0891L15.6937 30.0844V30.0844Z" fill="url(#paint5_radial_2_356)"/>
<path d="M6.12187 26.1984C7.43906 24.1969 4.51875 23.4516 4.51875 23.4516H4.51406C5.02031 24.0844 5.25468 24.6328 4.95468 25.1766C4.58437 25.8563 3.47343 25.9547 3.47343 25.9547C3.47343 25.9547 4.9875 27.3 6.12187 26.1984Z" fill="url(#paint6_radial_2_356)"/>
<path d="M15.6844 34.7438C13.8703 34.7438 12.4031 33.2766 12.4031 31.4625V28.4531H18.9656V31.4625C18.9656 33.2766 17.4937 34.7438 15.6844 34.7438Z" fill="#E59600"/>
<path d="M1.875 45V58.125H5.625V45H1.875Z" fill="url(#paint7_linear_2_356)"/>
<path d="M24.1312 16.2844H7.23281C5.40937 16.2844 3.91875 17.8734 3.91875 19.814C3.91875 21.7547 5.40937 23.3437 7.23281 23.3437H24.1312C25.9547 23.3437 27.4453 21.7547 27.4453 19.814C27.4453 17.8734 25.9547 16.2844 24.1312 16.2844Z" fill="#E59600"/>
<path d="M15.6844 3.80157C10.3031 3.80157 5.32031 9.55782 5.32031 17.8359C5.32031 26.0719 10.4531 30.1453 15.6844 30.1453C20.9156 30.1453 26.0484 26.0719 26.0484 17.8359C26.0484 9.55782 21.0656 3.80157 15.6844 3.80157V3.80157Z" fill="#FFCA28"/>
<path d="M18.2859 24.1594C17.3016 24.7453 14.0719 24.7453 13.0875 24.1594C12.5203 23.8219 11.9438 24.3375 12.1781 24.8531C12.4078 25.3594 14.1703 26.5312 15.6938 26.5312C17.2172 26.5312 18.9563 25.3594 19.1859 24.8531C19.425 24.3375 18.8531 23.8219 18.2859 24.1594Z" fill="#795548"/>
<path d="M16.875 21.6562C16.8441 21.6419 16.8106 21.6339 16.7766 21.6328H14.5875C14.5547 21.6375 14.5219 21.6469 14.4891 21.6562C14.2922 21.7359 14.1797 21.9422 14.2781 22.1625C14.3719 22.3828 14.8078 22.9969 15.6844 22.9969C16.5609 22.9969 16.9969 22.3828 17.0906 22.1625C17.1844 21.9422 17.0766 21.7359 16.875 21.6562V21.6562Z" fill="#E59600"/>
<path d="M10.6031 20.4094C11.4445 20.4094 12.1266 19.7021 12.1266 18.8297C12.1266 17.9572 11.4445 17.25 10.6031 17.25C9.76175 17.25 9.07968 17.9572 9.07968 18.8297C9.07968 19.7021 9.76175 20.4094 10.6031 20.4094Z" fill="#404040"/>
<path d="M20.7656 20.4094C21.607 20.4094 22.2891 19.7021 22.2891 18.8297C22.2891 17.9572 21.607 17.25 20.7656 17.25C19.9243 17.25 19.2422 17.9572 19.2422 18.8297C19.2422 19.7021 19.9243 20.4094 20.7656 20.4094Z" fill="#404040"/>
<path d="M18.5297 16.1484C18.8203 15.7594 19.5 15.1969 20.8125 15.1969C22.125 15.1969 22.8047 15.7594 23.0953 16.1484C23.2266 16.3219 23.1938 16.5187 23.1047 16.6359C23.0203 16.7484 22.7766 16.8516 22.5047 16.7578C22.2328 16.6641 21.7031 16.3922 20.8172 16.3828C19.9313 16.3875 19.3969 16.6641 19.1297 16.7578C18.8578 16.8516 18.6141 16.7484 18.5297 16.6359C18.4736 16.5671 18.4429 16.481 18.4429 16.3922C18.4429 16.3034 18.4736 16.2173 18.5297 16.1484V16.1484Z" fill="#6D4C41"/>
<path d="M8.27344 16.1484C8.56407 15.7594 9.24376 15.1969 10.5563 15.1969C11.8688 15.1969 12.5484 15.7594 12.8391 16.1484C12.9703 16.3219 12.9375 16.5187 12.8484 16.6359C12.7641 16.7484 12.5203 16.8516 12.2484 16.7578C11.9766 16.6641 11.4469 16.3922 10.5609 16.3828C9.67501 16.3875 9.14063 16.6641 8.87344 16.7578C8.60157 16.8516 8.35782 16.7484 8.27344 16.6359C8.21947 16.5661 8.19019 16.4804 8.19019 16.3922C8.19019 16.304 8.21947 16.2182 8.27344 16.1484V16.1484Z" fill="#6D4C41"/>
<path d="M28.0125 8.34375C27.2625 7.20468 25.5797 5.68593 24.0703 5.58281C23.8266 4.12968 22.275 2.90156 20.7703 2.42343C16.6969 1.13437 14.0484 2.57812 12.6234 3.35625C12.3281 3.51562 10.4203 4.575 9.07969 3.81562C8.24063 3.3375 8.25938 2.05312 8.25938 2.05312C8.25938 2.05312 5.63438 3.05156 6.53438 5.83593C5.63438 5.87343 4.45313 6.25312 3.825 7.51875C3.07969 9.02343 3.34688 10.2844 3.5625 10.8891C2.78906 11.5453 1.81406 12.9469 2.47969 14.7656C2.98125 16.1344 4.99219 16.7625 4.99219 16.7625C4.85156 19.2281 5.31094 20.7422 5.55469 21.3562C5.59688 21.4641 5.75156 21.4547 5.77969 21.3422C6.08438 20.1234 7.12031 15.8672 7.01719 15.1266C7.01719 15.1266 10.5094 14.4328 13.8375 11.9812C14.5172 11.4844 15.2484 11.0578 16.0313 10.7437C20.2125 9.07968 21.0891 11.9203 21.0891 11.9203C21.0891 11.9203 23.9859 11.3625 24.8625 15.3891C25.1906 16.8984 25.4156 19.3125 25.5984 21C25.6125 21.1219 25.7719 21.1453 25.8234 21.0328C26.1188 20.3625 26.7 19.0312 26.8406 17.6766C26.8875 17.1984 28.1766 16.5703 28.7297 14.5219C29.4656 11.7891 28.5563 9.16406 28.0125 8.34375V8.34375Z" fill="#543930"/>
<path d="M26.8266 17.6906C26.8734 17.2125 28.1625 16.5844 28.7156 14.5359C28.7766 14.3203 28.8234 14.0953 28.8703 13.875C29.3203 11.3859 28.5141 9.10311 28.0125 8.34374C27.3187 7.29374 25.8281 5.91561 24.4125 5.63436C24.2906 5.6203 24.1687 5.60624 24.0562 5.59686C24.0562 5.59686 24.1547 6.2578 23.8875 6.78749C23.5406 7.47186 22.8375 7.63124 22.8375 7.63124C26.5266 11.3109 26.2594 14.3953 26.8266 17.6906Z" fill="url(#paint8_radial_2_356)"/>
<path d="M13.5141 2.89219C13.1766 3.05626 12.8813 3.21563 12.6234 3.35626C12.3281 3.51563 10.4203 4.57501 9.07969 3.81563C8.25938 3.34688 8.25938 2.10001 8.25938 2.05313C7.87969 2.53594 6.73594 5.98594 10.0828 6.21563C11.5266 6.31407 12.4172 5.05782 12.9422 3.98907C13.1344 3.60469 13.4344 3.04219 13.5141 2.89219V2.89219Z" fill="url(#paint9_radial_2_356)"/>
<path d="M20.3484 2.30156C22.5984 2.91094 23.7 4.05469 24.0656 5.5875C24.1734 6.0375 24.3 10.2281 16.3031 5.46563C13.3266 3.69375 14.1422 2.5875 14.4891 2.46094C15.8484 1.96407 17.8219 1.61719 20.3484 2.30156Z" fill="url(#paint10_radial_2_356)"/>
<path d="M8.25 2.05782C8.24532 2.05782 8.24063 2.06251 8.23125 2.06719C7.94531 2.18907 5.69531 3.22969 6.53438 5.83594L8.92969 6.22032C6.81094 4.07344 8.25938 2.05313 8.25938 2.05313C8.25938 2.05313 8.25469 2.05313 8.25 2.05782V2.05782Z" fill="url(#paint11_radial_2_356)"/>
<path d="M8.01563 6.075L6.53907 5.83594C6.48282 5.83594 6.28594 5.85469 6.17813 5.86875C5.34376 5.98594 4.36407 6.41719 3.83438 7.51875C3.26251 8.70469 3.27657 9.72656 3.43126 10.4063C3.47813 10.6359 3.56719 10.8891 3.56719 10.8891C3.56719 10.8891 4.30313 10.1953 6.04219 10.1484L8.01563 6.075V6.075Z" fill="url(#paint12_radial_2_356)"/>
<path d="M3.4922 10.9453C2.76563 11.5922 1.78126 13.0359 2.50313 14.8219C3.04688 16.1719 4.9922 16.7578 4.9922 16.7578C4.9922 16.7625 5.38126 16.8797 5.58282 16.8797L6.03751 10.1437C5.1047 10.1437 4.20938 10.425 3.63282 10.8234C3.63751 10.8422 3.48751 10.9359 3.4922 10.9453V10.9453Z" fill="url(#paint13_radial_2_356)"/>
<path d="M48.2531 31.2281C46.8234 30.9797 45.4125 30.8672 44.025 30.8672C41.9016 30.8672 39.8484 31.1344 37.9031 31.5938C34.7109 32.3531 31.8 33.8578 30 36.1078V58.125H58.125V41.4375C58.125 35.6813 53.8219 32.1891 48.2531 31.2281Z" fill="url(#paint14_linear_2_356)"/>
<path d="M54.5438 25.1812C54.1594 24.4828 54.6516 23.7703 55.4859 22.8937C56.8125 21.4969 58.2516 18.2578 56.9156 14.9719C56.925 14.9531 56.6531 14.4 56.6578 14.3812L56.1047 14.3531C55.9266 14.3297 49.8703 14.3156 43.8094 14.3156C37.7484 14.3156 31.6922 14.3297 31.5141 14.3531C31.5141 14.3531 30.6984 14.9531 30.7078 14.9719C29.3672 18.2625 30.8109 21.4969 32.1375 22.8937C32.9719 23.775 33.4594 24.4828 33.0797 25.1812C32.7094 25.8609 31.5984 25.9594 31.5984 25.9594C31.5984 25.9594 31.8563 26.6531 32.4703 27.0281C33.0422 27.375 33.7406 27.4547 34.2234 27.4687C34.2234 27.4687 36.1172 30.0891 41.0625 30.0891H46.5656C51.5109 30.0891 53.4047 27.4687 53.4047 27.4687C53.8875 27.4594 54.5906 27.375 55.1578 27.0281C55.7719 26.6531 56.0297 25.9594 56.0297 25.9594C56.0297 25.9594 54.9188 25.8609 54.5438 25.1812V25.1812Z" fill="#543930"/>
<path d="M43.8047 30.0844V27.1781L52.5937 26.4844L53.3953 27.4687C53.3953 27.4687 51.5016 30.0891 46.5563 30.0891L43.8047 30.0844V30.0844Z" fill="url(#paint15_radial_2_356)"/>
<path d="M53.3766 26.1984C52.0594 24.1969 54.9797 23.4515 54.9797 23.4515H54.9844C54.4781 24.0844 54.2437 24.6328 54.5437 25.1765C54.9141 25.8562 56.025 25.9547 56.025 25.9547C56.025 25.9547 54.5109 27.3 53.3766 26.1984Z" fill="url(#paint16_radial_2_356)"/>
<path d="M56.9203 14.9672C58.2281 18.15 56.85 21.4312 55.5656 22.814C55.3875 23.0062 54.6375 23.7422 54.4688 24.3281C54.4688 24.3281 51.5344 20.2359 50.6578 17.8265C50.4797 17.339 50.3203 16.8422 50.2969 16.3265C50.2828 15.9375 50.3391 15.4781 50.5641 15.15C50.8359 14.7469 56.7656 14.6297 56.7656 14.6297C56.7609 14.6297 56.9203 14.9672 56.9203 14.9672Z" fill="url(#paint17_radial_2_356)"/>
<path d="M30.7031 14.9672C29.3953 18.15 30.7734 21.4312 32.0578 22.814C32.2359 23.0062 32.9859 23.7422 33.1547 24.3281C33.1547 24.3281 36.0891 20.2359 36.9656 17.8265C37.1438 17.339 37.3031 16.8422 37.3266 16.3265C37.3406 15.9375 37.2844 15.4781 37.0594 15.15C36.7875 14.7469 36.4641 14.8547 36 14.8547C35.1141 14.8547 31.2375 14.6297 30.9328 14.6297C30.9422 14.6297 30.7031 14.9672 30.7031 14.9672Z" fill="url(#paint18_radial_2_356)"/>
<path d="M43.8188 30.0844V27.1781L35.0297 26.4844L34.2281 27.4687C34.2281 27.4687 36.1219 30.0891 41.0672 30.0891L43.8188 30.0844V30.0844Z" fill="url(#paint19_radial_2_356)"/>
<path d="M34.2469 26.1984C35.5641 24.1969 32.6438 23.4515 32.6438 23.4515H32.6391C33.1453 24.0844 33.3797 24.6328 33.0797 25.1765C32.7094 25.8562 31.5984 25.9547 31.5984 25.9547C31.5984 25.9547 33.1125 27.3 34.2469 26.1984Z" fill="url(#paint20_radial_2_356)"/>
<path d="M43.8094 34.7438C41.9953 34.7438 40.5281 33.2766 40.5281 31.4625V28.4531H47.0906V31.4625C47.0906 33.2766 45.6187 34.7438 43.8094 34.7438Z" fill="#E59600"/>
<path d="M52.2562 16.2844H35.3578C33.5344 16.2844 32.0437 17.8734 32.0437 19.814C32.0437 21.7547 33.5344 23.3437 35.3578 23.3437H52.2562C54.0797 23.3437 55.5703 21.7547 55.5703 19.814C55.5703 17.8734 54.0797 16.2844 52.2562 16.2844V16.2844Z" fill="#E59600"/>
<path d="M43.8094 3.80157C38.4281 3.80157 33.4453 9.55782 33.4453 17.8359C33.4453 26.0719 38.5781 30.1453 43.8094 30.1453C49.0406 30.1453 54.1734 26.0719 54.1734 17.8359C54.1734 9.55782 49.1906 3.80157 43.8094 3.80157V3.80157Z" fill="#FFCA28"/>
<path d="M46.4109 24.1594C45.4266 24.7453 42.1969 24.7453 41.2125 24.1594C40.6453 23.8219 40.0688 24.3375 40.3031 24.8531C40.5328 25.3594 42.2953 26.5312 43.8188 26.5312C45.3422 26.5312 47.0812 25.3594 47.3109 24.8531C47.5453 24.3375 46.9781 23.8219 46.4109 24.1594Z" fill="#795548"/>
<path d="M45 21.6562C44.9691 21.6419 44.9356 21.6339 44.9016 21.6328H42.7125C42.6797 21.6375 42.6469 21.6469 42.6141 21.6562C42.4172 21.7359 42.3047 21.9422 42.3984 22.1625C42.4922 22.3828 42.9281 22.9969 43.8047 22.9969C44.6813 22.9969 45.1172 22.3828 45.2109 22.1625C45.3094 21.9422 45.2016 21.7359 45 21.6562V21.6562Z" fill="#E59600"/>
<path d="M38.7281 20.4094C39.5695 20.4094 40.2516 19.7021 40.2516 18.8297C40.2516 17.9572 39.5695 17.25 38.7281 17.25C37.8867 17.25 37.2047 17.9572 37.2047 18.8297C37.2047 19.7021 37.8867 20.4094 38.7281 20.4094Z" fill="#404040"/>
<path d="M48.8906 20.4094C49.732 20.4094 50.4141 19.7021 50.4141 18.8297C50.4141 17.9572 49.732 17.25 48.8906 17.25C48.0493 17.25 47.3672 17.9572 47.3672 18.8297C47.3672 19.7021 48.0493 20.4094 48.8906 20.4094Z" fill="#404040"/>
<path d="M46.6547 16.1484C46.9453 15.7594 47.625 15.1969 48.9375 15.1969C50.25 15.1969 50.9297 15.7594 51.2203 16.1484C51.3516 16.3219 51.3188 16.5187 51.2297 16.6359C51.1453 16.7484 50.9016 16.8516 50.6297 16.7578C50.3578 16.6641 49.8281 16.3922 48.9422 16.3828C48.0563 16.3875 47.5219 16.6641 47.2547 16.7578C46.9828 16.8516 46.7391 16.7484 46.6547 16.6359C46.5986 16.5671 46.5679 16.481 46.5679 16.3922C46.5679 16.3034 46.5986 16.2173 46.6547 16.1484V16.1484Z" fill="#6D4C41"/>
<path d="M36.3984 16.1484C36.6891 15.7594 37.3688 15.1969 38.6813 15.1969C39.9938 15.1969 40.6734 15.7594 40.9641 16.1484C41.0953 16.3219 41.0625 16.5187 40.9734 16.6359C40.8891 16.7484 40.6453 16.8516 40.3734 16.7578C40.1016 16.6641 39.5719 16.3922 38.6859 16.3828C37.8 16.3875 37.2656 16.6641 36.9984 16.7578C36.7266 16.8516 36.4828 16.7484 36.3984 16.6359C36.3445 16.5661 36.3152 16.4804 36.3152 16.3922C36.3152 16.304 36.3445 16.2182 36.3984 16.1484V16.1484Z" fill="#6D4C41"/>
<path d="M56.1374 8.34375C55.3874 7.20468 53.7046 5.68593 52.1952 5.58281C51.9515 4.12968 50.3999 2.90156 48.8952 2.42343C44.8218 1.13437 42.1733 2.57812 40.7483 3.35625C40.453 3.51562 38.5452 4.575 37.2046 3.81562C36.3655 3.3375 36.3843 2.05312 36.3843 2.05312C36.3843 2.05312 33.7593 3.05156 34.6593 5.83593C33.7593 5.87343 32.578 6.25312 31.9499 7.51875C31.2046 9.02343 31.4718 10.2844 31.6874 10.8891C30.914 11.5453 29.939 12.9469 30.6046 14.7656C31.1062 16.1344 33.1171 16.7625 33.1171 16.7625C32.9765 19.2281 33.4358 20.7422 33.6796 21.3562C33.7218 21.4641 33.8765 21.4547 33.9046 21.3422C34.2093 20.1234 35.2452 15.8672 35.1421 15.1266C35.1421 15.1266 38.6343 14.4328 41.9624 11.9812C42.6421 11.4844 43.3733 11.0578 44.1562 10.7437C48.3374 9.07968 49.214 11.9203 49.214 11.9203C49.214 11.9203 52.1108 11.3625 52.9874 15.3891C53.3155 16.8984 53.5405 19.3125 53.7233 21C53.7374 21.1219 53.8968 21.1453 53.9483 21.0328C54.2437 20.3625 54.8249 19.0312 54.9655 17.6766C55.0124 17.1984 56.3015 16.5703 56.8546 14.5219C57.5905 11.7891 56.6812 9.16406 56.1374 8.34375V8.34375Z" fill="#543930"/>
<path d="M54.9516 17.6906C54.9984 17.2125 56.2875 16.5844 56.8406 14.5359C56.9016 14.3203 56.9484 14.0953 56.9953 13.875C57.4453 11.3859 56.6391 9.10311 56.1375 8.34374C55.4437 7.29374 53.9531 5.91561 52.5375 5.63436C52.4156 5.6203 52.2937 5.60624 52.1812 5.59686C52.1812 5.59686 52.2797 6.2578 52.0125 6.78749C51.6656 7.47186 50.9625 7.63124 50.9625 7.63124C54.6516 11.3109 54.3844 14.3953 54.9516 17.6906V17.6906Z" fill="url(#paint21_radial_2_356)"/>
<path d="M41.6391 2.89219C41.3016 3.05626 41.0063 3.21563 40.7484 3.35626C40.4531 3.51563 38.5453 4.57501 37.2047 3.81563C36.3844 3.34688 36.3844 2.10001 36.3844 2.05313C36.0047 2.53594 34.8609 5.98594 38.2078 6.21563C39.6516 6.31407 40.5422 5.05782 41.0672 3.98907C41.2594 3.60469 41.5594 3.04219 41.6391 2.89219V2.89219Z" fill="url(#paint22_radial_2_356)"/>
<path d="M48.4734 2.30156C50.7234 2.91094 51.825 4.05469 52.1906 5.5875C52.2984 6.0375 52.425 10.2281 44.4281 5.46563C41.4516 3.69375 42.2672 2.5875 42.6141 2.46094C43.9734 1.96407 45.9469 1.61719 48.4734 2.30156Z" fill="url(#paint23_radial_2_356)"/>
<path d="M36.375 2.05782C36.3703 2.05782 36.3656 2.06251 36.3563 2.06719C36.0703 2.18907 33.8203 3.22969 34.6594 5.83594L37.0547 6.22032C34.9359 4.07344 36.3844 2.05313 36.3844 2.05313C36.3844 2.05313 36.3797 2.05313 36.375 2.05782V2.05782Z" fill="url(#paint24_radial_2_356)"/>
<path d="M36.1406 6.075L34.6641 5.83594C34.6078 5.83594 34.4109 5.85469 34.3031 5.86875C33.4687 5.98594 32.4891 6.41719 31.9594 7.51875C31.3875 8.70469 31.4016 9.72656 31.5562 10.4063C31.6031 10.6359 31.6922 10.8891 31.6922 10.8891C31.6922 10.8891 32.4281 10.1953 34.1672 10.1484L36.1406 6.075V6.075Z" fill="url(#paint25_radial_2_356)"/>
<path d="M31.6172 10.9453C30.8906 11.5922 29.9062 13.0359 30.6281 14.8219C31.1719 16.1719 33.1172 16.7578 33.1172 16.7578C33.1172 16.7625 33.5062 16.8797 33.7078 16.8797L34.1625 10.1437C33.2297 10.1437 32.3344 10.425 31.7578 10.8234C31.7625 10.8422 31.6125 10.9359 31.6172 10.9453V10.9453Z" fill="url(#paint26_radial_2_356)"/>
<path opacity="0.4" d="M30.0094 41.4375C30.0094 35.6813 25.4766 32.1891 19.9078 31.2281C19.0453 31.0781 18.2812 30.9844 17.3438 30.9281V58.125H42.6562V30.9141C41.7188 30.9656 40.8141 31.0688 39.8906 31.2281C34.3219 32.1891 30.0094 35.6813 30.0094 41.4375Z" fill="url(#paint27_radial_2_356)"/>
<path d="M40.1109 57.1781C40.1109 52.5656 34.2469 51.0187 32.2031 51.0187H27.8062C25.7672 51.0187 19.8937 52.5656 19.8937 57.1781C19.8937 57.1781 19.8891 57.5484 19.8797 58.125H40.1203L40.1109 57.1781V57.1781Z" fill="url(#paint28_linear_2_356)"/>
<path d="M30 54.5156C29.4169 54.5156 28.8578 54.284 28.4455 53.8717C28.0332 53.4594 27.8016 52.9003 27.8016 52.3172V50.6297H32.2031V52.3172C32.2013 52.9005 31.9684 53.4593 31.5555 53.8713C31.1426 54.2834 30.5833 54.515 30 54.5156V54.5156Z" fill="#E59600"/>
<path d="M36.9094 41.8172H23.0906C21.6 41.8172 20.3813 42.9891 20.3813 44.4234C20.3813 45.8578 21.6 47.0297 23.0906 47.0297H36.9047C38.3953 47.0297 39.6141 45.8578 39.6141 44.4234C39.6141 42.9891 38.4 41.8172 36.9094 41.8172Z" fill="#E59600"/>
<path d="M30 31.0641C25.6266 31.0641 21.5813 35.6578 21.5813 42.2672C21.5813 48.8391 25.7531 52.0922 30 52.0922C34.2469 52.0922 38.4188 48.8437 38.4188 42.2672C38.4188 35.6531 34.3734 31.0641 30 31.0641V31.0641Z" fill="#FFCA28"/>
<path d="M32.025 47.2922C31.2562 47.7469 28.7437 47.7469 27.975 47.2922C27.5344 47.0297 27.0844 47.4328 27.2672 47.8312C27.4453 48.225 28.8187 49.139 30.0047 49.139C31.1906 49.139 32.5453 48.225 32.7234 47.8312C32.9109 47.4281 32.4656 47.0297 32.025 47.2922Z" fill="#795548"/>
<path d="M30.9281 45.3375C30.903 45.3263 30.8759 45.32 30.8484 45.3188H29.1469C29.1188 45.3234 29.0953 45.3281 29.0672 45.3375C28.9125 45.3984 28.8281 45.5578 28.9031 45.7313C28.9781 45.9 29.3156 46.3781 30 46.3781C30.6844 46.3781 31.0219 45.9 31.0969 45.7313C31.1672 45.5578 31.0828 45.3984 30.9281 45.3375Z" fill="#E59600"/>
<path d="M25.9969 45.3234C26.6519 45.3234 27.1828 44.7736 27.1828 44.0953C27.1828 43.417 26.6519 42.8672 25.9969 42.8672C25.3419 42.8672 24.8109 43.417 24.8109 44.0953C24.8109 44.7736 25.3419 45.3234 25.9969 45.3234Z" fill="#404040"/>
<path d="M34.0031 45.3234C34.6581 45.3234 35.1891 44.7736 35.1891 44.0953C35.1891 43.417 34.6581 42.8672 34.0031 42.8672C33.3482 42.8672 32.8172 43.417 32.8172 44.0953C32.8172 44.7736 33.3482 45.3234 34.0031 45.3234Z" fill="#404040"/>
<path d="M24.1406 41.9109C24.1875 41.85 24.2016 41.8125 24.2859 41.7281C24.4734 41.5312 24.8391 41.2969 25.1953 41.175C25.5375 41.0578 25.6969 41.0578 25.9547 41.0578C26.3531 41.0578 26.5969 41.1422 26.7141 41.175C26.8781 41.2312 27.0328 41.3062 27.1875 41.3906C27.4453 41.5453 28.0031 41.925 27.8344 42.2672C27.6469 42.6469 27.3609 42.5062 27.1031 42.4078C26.9906 42.375 26.4844 42.1734 25.95 42.1734C25.6594 42.1734 25.5375 42.2062 25.4625 42.2156C25.1203 42.2719 24.8625 42.3797 24.8156 42.3937C24.6375 42.4641 24.5109 42.5672 24.3094 42.4875C24.0938 42.3937 24.0047 42.1125 24.1406 41.9109V41.9109Z" fill="#6D4C41"/>
<path d="M35.8594 41.9109C35.8125 41.85 35.7984 41.8125 35.7141 41.7281C35.5313 41.5312 35.1609 41.2969 34.8047 41.175C34.4625 41.0578 34.3031 41.0578 34.0453 41.0578C33.6469 41.0578 33.4031 41.1422 33.2859 41.175C33.1219 41.2312 32.9672 41.3062 32.8125 41.3906C32.5547 41.5453 31.9969 41.925 32.1656 42.2672C32.3531 42.6469 32.6391 42.5062 32.8969 42.4078C33.0094 42.375 33.5156 42.1734 34.05 42.1734C34.3406 42.1734 34.4625 42.2062 34.5375 42.2156C34.8797 42.2719 35.1375 42.3797 35.1844 42.3937C35.3625 42.4641 35.4891 42.5672 35.6859 42.4875C35.9062 42.3937 35.9953 42.1125 35.8594 41.9109V41.9109Z" fill="#6D4C41"/>
<path d="M30.0516 30.075C20.7094 30.075 20.0578 37.7063 20.4375 41.0438C20.7703 43.9922 22.3078 44.7188 22.3078 44.7188C22.3078 44.7188 22.0031 42.1453 22.4953 40.2797C22.8844 38.7984 23.8078 37.7016 23.8078 37.7016C23.8078 37.7016 25.4953 39.1641 28.6359 40.1156C30.15 40.575 32.0906 40.3453 32.0906 40.3453L31.0031 38.4234C31.0031 38.4234 32.7844 39.7313 33.8906 39.9797C35.3109 40.2984 36.3516 40.1625 36.3516 40.1625L35.8313 38.1328C35.8313 38.1328 36.7359 38.7234 37.4109 40.3406C38.0859 41.9578 37.6688 44.7188 37.6688 44.7188C37.6688 44.7188 39.2906 43.9969 39.5531 41.0438C39.8766 37.3453 39.3516 30.075 30.0516 30.075Z" fill="#543930"/>
<path d="M30.0516 30.075C20.7094 30.075 20.0578 37.7063 20.4375 41.0438C20.7703 43.9922 22.3078 44.7188 22.3078 44.7188C22.3078 44.7188 22.0031 42.1453 22.4953 40.2797C22.8844 38.7984 23.8078 37.7016 23.8078 37.7016C23.8078 37.7016 25.4953 39.1641 28.6359 40.1156C30.15 40.575 32.0906 40.3453 32.0906 40.3453L31.0031 38.4234C31.0031 38.4234 32.7844 39.7313 33.8906 39.9797C35.3109 40.2984 36.3516 40.1625 36.3516 40.1625L35.8313 38.1328C35.8313 38.1328 36.7359 38.7234 37.4109 40.3406C38.0859 41.9578 37.6688 44.7188 37.6688 44.7188C37.6688 44.7188 39.2906 43.9969 39.5531 41.0438C39.8766 37.3453 39.3516 30.075 30.0516 30.075Z" fill="url(#paint29_radial_2_356)"/>
<path d="M54.375 45V58.125H58.125V45H54.375Z" fill="url(#paint30_linear_2_356)"/>
<defs>
<linearGradient id="paint0_linear_2_356" x1="15.9375" y1="57.7955" x2="15.9375" y2="31.7672" gradientUnits="userSpaceOnUse">
<stop stop-color="#4D7D23"/>
<stop offset="1" stop-color="#67B730"/>
</linearGradient>
<radialGradient id="paint1_radial_2_356" cx="0" cy="0" r="1" gradientUnits="userSpaceOnUse" gradientTransform="translate(20.1698 25.8894) scale(7.20422 3.53871)">
<stop offset="0.728" stop-color="#6D4C41" stop-opacity="0"/>
<stop offset="1" stop-color="#6D4C41"/>
</radialGradient>
<radialGradient id="paint2_radial_2_356" cx="0" cy="0" r="1" gradientUnits="userSpaceOnUse" gradientTransform="translate(27.2695 24.8158) rotate(154.924) scale(2.12896 1.57938)">
<stop offset="0.663" stop-color="#6D4C41"/>
<stop offset="1" stop-color="#6D4C41" stop-opacity="0"/>
</radialGradient>
<radialGradient id="paint3_radial_2_356" cx="0" cy="0" r="1" gradientUnits="userSpaceOnUse" gradientTransform="translate(21.7503 18.7966) rotate(-94.2783) scale(9.35144 7.79382)">
<stop offset="0.725" stop-color="#6D4C41" stop-opacity="0"/>
<stop offset="1" stop-color="#6D4C41"/>
</radialGradient>
<radialGradient id="paint4_radial_2_356" cx="0" cy="0" r="1" gradientUnits="userSpaceOnUse" gradientTransform="translate(9.62556 18.7952) rotate(-85.7217) scale(9.35144 7.79382)">
<stop offset="0.725" stop-color="#6D4C41" stop-opacity="0"/>
<stop offset="1" stop-color="#6D4C41"/>
</radialGradient>
<radialGradient id="paint5_radial_2_356" cx="0" cy="0" r="1" gradientUnits="userSpaceOnUse" gradientTransform="translate(11.2041 25.8894) rotate(180) scale(7.20422 3.53871)">
<stop offset="0.728" stop-color="#6D4C41" stop-opacity="0"/>
<stop offset="1" stop-color="#6D4C41"/>
</radialGradient>
<radialGradient id="paint6_radial_2_356" cx="0" cy="0" r="1" gradientUnits="userSpaceOnUse" gradientTransform="translate(4.10788 24.8171) rotate(25.0761) scale(2.12896 1.57938)">
<stop offset="0.663" stop-color="#6D4C41"/>
<stop offset="1" stop-color="#6D4C41" stop-opacity="0"/>
</radialGradient>
<linearGradient id="paint7_linear_2_356" x1="4.04672" y1="58.4362" x2="3.49687" y2="45.6933" gradientUnits="userSpaceOnUse">
<stop offset="0.604" stop-color="#FFCA28"/>
<stop offset="1" stop-color="#FFB300"/>
</linearGradient>
<radialGradient id="paint8_radial_2_356" cx="0" cy="0" r="1" gradientUnits="userSpaceOnUse" gradientTransform="translate(21.2265 13.8615) rotate(72.0851) scale(10.9616 8.1332)">
<stop offset="0.699" stop-color="#6D4C41" stop-opacity="0"/>
<stop offset="1" stop-color="#6D4C41"/>
</radialGradient>
<radialGradient id="paint9_radial_2_356" cx="0" cy="0" r="1" gradientUnits="userSpaceOnUse" gradientTransform="translate(10.5403 1.9101) rotate(28.2026) scale(2.87396 3.40768)">
<stop offset="0.58" stop-color="#6D4C41"/>
<stop offset="1" stop-color="#6D4C41" stop-opacity="0"/>
</radialGradient>
<radialGradient id="paint10_radial_2_356" cx="0" cy="0" r="1" gradientUnits="userSpaceOnUse" gradientTransform="translate(16.9652 7.12651) rotate(-157.19) scale(8.98885 5.05177)">
<stop offset="0.699" stop-color="#6D4C41" stop-opacity="0"/>
<stop offset="1" stop-color="#6D4C41"/>
</radialGradient>
<radialGradient id="paint11_radial_2_356" cx="0" cy="0" r="1" gradientUnits="userSpaceOnUse" gradientTransform="translate(9.38578 4.53156) scale(2.63812 3.22722)">
<stop offset="0.702" stop-color="#6D4C41" stop-opacity="0"/>
<stop offset="1" stop-color="#6D4C41"/>
</radialGradient>
<radialGradient id="paint12_radial_2_356" cx="0" cy="0" r="1" gradientUnits="userSpaceOnUse" gradientTransform="translate(9.02265 9.1884) rotate(-164.942) scale(4.94784 4.63028)">
<stop offset="0.66" stop-color="#6D4C41" stop-opacity="0"/>
<stop offset="1" stop-color="#6D4C41"/>
</radialGradient>
<radialGradient id="paint13_radial_2_356" cx="0" cy="0" r="1" gradientUnits="userSpaceOnUse" gradientTransform="translate(7.85038 13.9653) rotate(7.83355) scale(5.19485 7.29963)">
<stop offset="0.598" stop-color="#6D4C41" stop-opacity="0"/>
<stop offset="1" stop-color="#6D4C41"/>
</radialGradient>
<linearGradient id="paint14_linear_2_356" x1="44.0625" y1="31.1981" x2="44.0625" y2="57.2264" gradientUnits="userSpaceOnUse">
<stop offset="0.366" stop-color="#F78C1F"/>
<stop offset="0.672" stop-color="#F47F12"/>
<stop offset="1" stop-color="#EF6C00"/>
</linearGradient>
<radialGradient id="paint15_radial_2_356" cx="0" cy="0" r="1" gradientUnits="userSpaceOnUse" gradientTransform="translate(48.2948 25.8894) scale(7.20422 3.53871)">
<stop offset="0.728" stop-color="#6D4C41" stop-opacity="0"/>
<stop offset="1" stop-color="#6D4C41"/>
</radialGradient>
<radialGradient id="paint16_radial_2_356" cx="0" cy="0" r="1" gradientUnits="userSpaceOnUse" gradientTransform="translate(55.3948 24.8158) rotate(154.924) scale(2.12895 1.57938)">
<stop offset="0.663" stop-color="#6D4C41"/>
<stop offset="1" stop-color="#6D4C41" stop-opacity="0"/>
</radialGradient>
<radialGradient id="paint17_radial_2_356" cx="0" cy="0" r="1" gradientUnits="userSpaceOnUse" gradientTransform="translate(49.8751 18.7966) rotate(-94.2783) scale(9.35144 7.79382)">
<stop offset="0.725" stop-color="#6D4C41" stop-opacity="0"/>
<stop offset="1" stop-color="#6D4C41"/>
</radialGradient>
<radialGradient id="paint18_radial_2_356" cx="0" cy="0" r="1" gradientUnits="userSpaceOnUse" gradientTransform="translate(37.7507 18.7951) rotate(-85.7217) scale(9.35144 7.79382)">
<stop offset="0.725" stop-color="#6D4C41" stop-opacity="0"/>
<stop offset="1" stop-color="#6D4C41"/>
</radialGradient>
<radialGradient id="paint19_radial_2_356" cx="0" cy="0" r="1" gradientUnits="userSpaceOnUse" gradientTransform="translate(39.3295 25.8894) rotate(180) scale(7.20422 3.53871)">
<stop offset="0.728" stop-color="#6D4C41" stop-opacity="0"/>
<stop offset="1" stop-color="#6D4C41"/>
</radialGradient>
<radialGradient id="paint20_radial_2_356" cx="0" cy="0" r="1" gradientUnits="userSpaceOnUse" gradientTransform="translate(32.2332 24.8171) rotate(25.0761) scale(2.12895 1.57938)">
<stop offset="0.663" stop-color="#6D4C41"/>
<stop offset="1" stop-color="#6D4C41" stop-opacity="0"/>
</radialGradient>
<radialGradient id="paint21_radial_2_356" cx="0" cy="0" r="1" gradientUnits="userSpaceOnUse" gradientTransform="translate(49.3513 13.8615) rotate(72.0851) scale(10.9616 8.1332)">
<stop offset="0.699" stop-color="#6D4C41" stop-opacity="0"/>
<stop offset="1" stop-color="#6D4C41"/>
</radialGradient>
<radialGradient id="paint22_radial_2_356" cx="0" cy="0" r="1" gradientUnits="userSpaceOnUse" gradientTransform="translate(38.6655 1.91011) rotate(28.2026) scale(2.87396 3.40768)">
<stop offset="0.58" stop-color="#6D4C41"/>
<stop offset="1" stop-color="#6D4C41" stop-opacity="0"/>
</radialGradient>
<radialGradient id="paint23_radial_2_356" cx="0" cy="0" r="1" gradientUnits="userSpaceOnUse" gradientTransform="translate(45.0902 7.12646) rotate(-157.19) scale(8.98885 5.05177)">
<stop offset="0.699" stop-color="#6D4C41" stop-opacity="0"/>
<stop offset="1" stop-color="#6D4C41"/>
</radialGradient>
<radialGradient id="paint24_radial_2_356" cx="0" cy="0" r="1" gradientUnits="userSpaceOnUse" gradientTransform="translate(37.5108 4.53156) scale(2.63813 3.22722)">
<stop offset="0.702" stop-color="#6D4C41" stop-opacity="0"/>
<stop offset="1" stop-color="#6D4C41"/>
</radialGradient>
<radialGradient id="paint25_radial_2_356" cx="0" cy="0" r="1" gradientUnits="userSpaceOnUse" gradientTransform="translate(37.1473 9.1887) rotate(-164.942) scale(4.94783 4.63028)">
<stop offset="0.66" stop-color="#6D4C41" stop-opacity="0"/>
<stop offset="1" stop-color="#6D4C41"/>
</radialGradient>
<radialGradient id="paint26_radial_2_356" cx="0" cy="0" r="1" gradientUnits="userSpaceOnUse" gradientTransform="translate(35.9753 13.965) rotate(7.83355) scale(5.19485 7.29963)">
<stop offset="0.598" stop-color="#6D4C41" stop-opacity="0"/>
<stop offset="1" stop-color="#6D4C41"/>
</radialGradient>
<radialGradient id="paint27_radial_2_356" cx="0" cy="0" r="1" gradientUnits="userSpaceOnUse" gradientTransform="translate(30 44.5194) scale(12.705 18.5086)">
<stop offset="0.594" stop-color="#212121"/>
<stop offset="1" stop-color="#616161" stop-opacity="0.05"/>
</radialGradient>
<linearGradient id="paint28_linear_2_356" x1="29.9995" y1="53.1164" x2="29.9995" y2="57.8583" gradientUnits="userSpaceOnUse">
<stop offset="0.313" stop-color="#A900FE"/>
<stop offset="1" stop-color="#9000D9"/>
</linearGradient>
<radialGradient id="paint29_radial_2_356" cx="0" cy="0" r="1" gradientUnits="userSpaceOnUse" gradientTransform="translate(29.9643 40.3205) rotate(90) scale(12.0504 10.5141)">
<stop offset="0.794" stop-color="#6D4C41" stop-opacity="0"/>
<stop offset="1" stop-color="#6D4C41"/>
</radialGradient>
<linearGradient id="paint30_linear_2_356" x1="56.5467" y1="58.4362" x2="55.9969" y2="45.6933" gradientUnits="userSpaceOnUse">
<stop offset="0.604" stop-color="#FFCA28"/>
<stop offset="1" stop-color="#FFB300"/>
</linearGradient>
</defs>
</svg>
